<svg xmlns="http://www.w3.org/2000/svg" width="192px" height="192px" viewBox="0 0 192 192">
	<style>
		path {
			fill: #0071EB;
		}
		@media ( prefers-color-scheme: dark ) {
			path {
				fill: #FFF;
			}
		}
	</style>
	<path d="M122.821,187.076l20.223-35.025c-13.484,0-26.961,0-40.447,0l4.853,8.397 c-6.725,1.074-13.308,2.133-20.205,2.133c-59.425,0-91.199-45.67-67.553-98.827l-9.328-5.385 c-30.182,63.961,1.292,125.656,76.881,125.656c11.377,0,20.469-1.937,31.17-4.582L122.821,187.076L122.821,187.076L122.821,187.076 z M170.333,128.76l9.33,5.387c30.18-63.966-1.322-125.712-76.913-125.712c-11.407,0-20.481,1.943-31.203,4.61l-4.39-7.599 L46.939,40.469H87.38l-4.871-8.439c6.734-1.088,13.322-2.154,20.241-2.154C162.192,29.876,193.983,75.59,170.333,128.76 L170.333,128.76L170.333,128.76z M97.544,121.932v17.155H37.513V53.325H96.32v17.15H57.117v17.153h34.299v15.928H57.117v18.375 H97.544L97.544,121.932L97.544,121.932z M120.167,76.604l12.293,19.601l12.296-19.601h19.694l-20.35,31.241l20.825,31.242h-19.693 l-12.772-19.604l-12.769,19.604H99.994l20.833-31.242l-20.354-31.241H120.167L120.167,76.604L120.167,76.604z"/>
</svg>
