<?xml version="1.0" encoding="utf-8"?>
<!-- Generator: Adobe Illustrator 16.0.0, SVG Export Plug-In . SVG Version: 6.00 Build 0)  -->
<!DOCTYPE svg PUBLIC "-//W3C//DTD SVG 1.1//EN" "http://www.w3.org/Graphics/SVG/1.1/DTD/svg11.dtd">
<svg version="1.1" id="Layer_1" focusable="false" xmlns="http://www.w3.org/2000/svg" xmlns:xlink="http://www.w3.org/1999/xlink"
	 x="0px" y="0px" width="500px" height="500px" viewBox="-250.47 316.965 500 500" enable-background="new -250.47 316.965 500 500"
	 xml:space="preserve">
<path d="M115.176,443.255C83.661,413.747,42.763,397.571-0.622,397.61c-78.083,0.068-145.492,53.606-164.104,127.873
	c-1.355,5.406-6.171,9.224-11.745,9.224h-57.765c-7.56,0-13.301-6.862-11.903-14.291C-224.327,404.59-122.634,316.965-0.47,316.965
	c66.984,0,127.813,26.347,172.696,69.239l36.003-36.004c15.241-15.24,41.301-4.445,41.301,17.108v135.14
	c0,13.362-10.832,24.194-24.193,24.194H90.197c-21.556,0-32.35-26.06-17.108-41.302L115.176,443.255z M-226.277,607.288h135.14
	c21.556,0,32.35,26.059,17.108,41.301l-42.087,42.087c31.515,29.509,72.414,45.685,115.803,45.646
	c78.042-0.07,145.479-53.573,164.1-127.872c1.355-5.406,6.171-9.224,11.745-9.224h57.766c7.56,0,13.301,6.861,11.902,14.29
	C223.387,729.34,121.694,816.965-0.47,816.965c-66.983,0-127.813-26.347-172.697-69.239l-36.002,36.003
	c-15.241,15.241-41.301,4.447-41.301-17.106V631.48C-250.47,618.119-239.638,607.288-226.277,607.288z"/>
</svg>
