<?xml version="1.0" encoding="utf-8"?>
<!-- Generator: Adobe Illustrator 16.0.0, SVG Export Plug-In . SVG Version: 6.00 Build 0)  -->
<!DOCTYPE svg PUBLIC "-//W3C//DTD SVG 1.1//EN" "http://www.w3.org/Graphics/SVG/1.1/DTD/svg11.dtd">
<svg version="1.1" id="Layer_1" focusable="false" xmlns="http://www.w3.org/2000/svg" xmlns:xlink="http://www.w3.org/1999/xlink"
	 x="0px" y="0px" width="500px" height="500px" viewBox="-250.47 316.965 500 500" enable-background="new -250.47 316.965 500 500"
	 xml:space="preserve">
<path d="M95.654,566.966L238.51,424.108c14.692-14.535,14.692-38.293,0-52.984L203.187,335.8c-14.535-14.691-38.293-14.691-52.985,0
	L-0.238,486.24c-0.152-0.001-0.305,0.004-0.458,0.005L-151.143,335.8c-14.536-14.691-38.292-14.691-52.985,0l-35.323,35.324
	c-14.692,14.535-14.692,38.293,0,52.984l142.857,142.857l-142.857,142.856c-14.692,14.691-14.692,38.449,0,52.984l35.323,35.324
	c14.693,14.691,38.45,14.691,52.985,0L-0.696,647.686c0.152,0.001,0.305,0.006,0.458,0.005l150.44,150.44
	c14.692,14.691,38.45,14.691,52.985,0l35.323-35.324c14.692-14.691,14.692-38.449,0-52.984L95.654,566.966z"/>
</svg>
